<svg width="24" height="24" viewBox="0 0 24 24" fill="none" xmlns="http://www.w3.org/2000/svg">
    <rect width="24" height="24" rx="12" fill="#0092FF"/>
    <path d="M18.692 10.51c-.69-3.109-3.504-5.367-6.692-5.367A6.866 6.866 0 0 0 5.143 12 6.863 6.863 0 0 0 12 18.857a6.89 6.89 0 0 0 6.191-3.916l.095-.199h-3.364l-.041.043a3.975 3.975 0 0 1-2.886 1.231 4.018 4.018 0 0 1-4.012-4.014 4.02 4.02 0 0 1 4.012-4.017c1.595 0 3.047.964 3.68 2.417h-5.1v2.842h8.169l.02-.117a6.863 6.863 0 0 0-.072-2.616z" fill="#fff"/>
</svg>
